<svg width="1024" height="1024" viewBox="0 0 1024 1024" fill="none" xmlns="http://www.w3.org/2000/svg">
<rect width="1024" height="1024" fill="black"/>
<path d="M292.384 372.35C293.703 372.262 294.749 372.101 296.006 372.542C297.731 375.364 291.48 424.536 290.463 430.376C292.916 428.729 295.072 426.416 297.344 424.497C305.392 417.7 353.707 373.758 358.531 372.771C364.121 371.628 371.934 372.481 377.728 372.487L417.587 372.423C414.314 381.199 408.702 391.874 404.787 400.714C392.961 427.416 379.85 453.904 366.475 479.868C363.774 485.112 355.775 502.459 353.024 505.979C350.546 507.309 306.265 506.739 299.64 506.824C308.912 487.826 319.888 469.575 329.277 450.642C331.959 445.233 334.61 440.456 337.644 435.245C335.963 436.671 334.232 438.256 332.657 439.798C321.45 450.77 309.325 460.766 297.826 471.388C292.436 476.429 262.228 504.859 257.472 506.247C253.189 507.498 239.24 506.678 233.884 506.803C231.95 506.849 227.598 507.325 226.16 505.951C225.698 502.292 228.821 485.539 229.654 480.544C232.515 462.913 235.567 445.313 238.809 427.748C233.835 433.843 228.823 440.808 223.976 447.113C213.236 461.147 202.355 475.074 191.336 488.89C187.978 493.069 180.087 503.668 176.791 506.566C173.833 506.759 164.934 506.956 162.178 506.736C157.84 506.391 131.887 507.356 130.264 506.497C129.658 503.818 145.016 485.125 147.32 482.172C169.959 453.152 192.121 423.632 216.638 396.145C223.072 388.932 231.379 378.082 239 372.617C243.699 372.216 252.369 372.454 257.379 372.456C269.048 372.509 280.716 372.474 292.384 372.35Z" fill="#FEFEFE"/>
<path d="M469.295 372.678C474.057 372.232 481.69 372.439 486.659 372.439L516.983 372.45L546.22 372.459C552.881 372.464 560.792 372.04 567.176 373.205C579.835 375.515 587.818 387.675 581.955 399.834C579.49 404.95 576.651 409.377 573.817 414.127L561.173 435.63L544.159 464.768C540.63 470.881 535.152 480.966 530.94 486.221C522.564 496.678 504.613 504.998 491.423 506.551C474.097 507.391 450.97 506.666 433.108 506.662L411.399 506.726C406.601 506.746 400.362 506.94 395.704 506.267C391.32 505.679 387.15 504.012 383.57 501.416C377.532 497.092 374.486 488.647 377.303 481.525C379.325 476.412 382.96 470.941 385.789 466.112L400.866 440.542C406.712 430.432 412.628 420.362 418.611 410.334C420.621 406.948 426.052 397.394 428.245 394.653C437.165 383.5 455.534 374.717 469.295 372.678ZM480.114 475.276C484.843 474.108 485.362 473.389 487.8 469.346L510.873 430.241C514.525 423.984 519.436 417.186 521.921 410.406C522.282 409.41 522.274 408.25 522.008 407.23C521.83 406.562 521.349 405.117 520.706 404.782C517.602 403.163 484.479 403.488 479.269 404.003C474.592 405.186 472.343 408.137 470.067 412.141C459.396 430.917 447.861 449.315 437.832 468.433C437.043 469.936 436.962 472.969 438.363 474.296C442.949 476.397 473.167 475.587 480.114 475.276Z" fill="#FEFEFE"/>
<path d="M795.765 372.684C801.104 372.036 809.175 372.46 814.669 372.463L846.673 372.445L874.25 372.437C885.675 372.437 895.135 371.021 904.309 378.617C910.232 383.52 911.768 391.193 908.37 397.858C902.769 408.835 896.104 419.192 889.959 429.806L869.316 465.244C866.748 469.633 857.629 485.525 854.509 488.68C845.248 498.039 829.313 505.336 816.475 506.511C789.656 507.715 761.824 505.974 734.897 506.725C725.862 506.977 716.073 506.032 708.685 500.209C693.814 488.487 707.959 472.042 714.929 460.167L733.15 428.928C739.51 418.223 746.636 404.329 753.857 394.678C761.951 383.855 782.458 374.254 795.765 372.684ZM805.36 475.415C807.408 475.405 809.246 474.525 810.691 473.085C816.038 467.761 824.236 451.397 828.475 444.123C834.204 434.297 842.008 422.197 846.716 412.081C847.34 410.742 847.737 409.47 847.741 407.977C847.745 406.798 847.486 405.703 846.621 404.865C845.045 403.342 811.787 403.756 807.36 403.96C806.753 403.988 806.146 404.021 805.538 404.06C802.41 404.588 800.009 405.905 798.302 408.671C786.642 427.606 775.357 446.992 764.702 466.504C763.769 468.209 762.927 471.485 763.158 473.389C765.027 476.304 775.277 475.403 778.54 475.485C787.349 475.707 796.587 474.976 805.36 475.415Z" fill="#FEFEFE"/>
<path d="M333.25 518.948C334.574 517.347 336.332 515.219 337.695 513.571C337.906 513.317 338.448 513.868 338.549 513.002L338.052 513.169L338.594 512.879C338.599 516.531 341.991 517.64 344.812 520.188C345.83 518.573 347.043 516.485 348.285 515.094C347.944 516.324 346.271 521.947 346.193 522.841C362.471 528.42 411.985 528.971 403.707 560.847C400.978 571.354 378.17 584.596 369.085 589.31C359.448 593.818 348.747 598.626 338.982 603.104C343.442 612.04 378.073 647.901 375.575 654.945C375.546 655.026 375.511 655.105 375.478 655.186L374.826 655.951C375.45 657.06 376.101 658.604 377.211 659.078C379.504 657.748 383.756 646.561 385.088 643.577C396.049 619.617 407.44 595.855 419.255 572.305C425.551 559.903 436.01 536.393 447.485 527.462C450.966 524.752 458.611 529.191 465.002 526.751C465.099 529.2 465.065 533.326 466.214 535.353L467.63 535.581C470.083 538.248 465.9 547.691 464.522 550.75C458.935 563.158 452.237 575.03 446.009 587.121C440.399 598.011 434.365 608.704 428.325 619.364C422.867 628.996 418.228 639.249 411.379 648C410.339 649.33 409.031 650.796 407.682 651.82C403.463 654.005 394.54 658.26 390.113 658.734C388.568 657.468 389.893 657.132 388.731 656.148C386.485 657.735 381.866 663.04 380.148 665.311C382.024 667.957 384.042 670.633 385.467 673.539C382.14 669.807 380.295 669.049 376.629 666.032C371.317 661.661 367.113 656.832 360.707 653.817C361.313 655.958 361.906 658.103 362.488 660.251C360.514 658.873 358.535 657.436 356.241 656.394C351.949 654.445 347.45 654.005 343.679 650.891C331.735 641.024 321.94 618.391 306.543 615.003C301.558 613.967 299.026 619.702 297.211 622.584C293.241 628.887 290.475 634.652 283.188 636.976C282.516 637.19 278.254 642.477 277.052 643.184C275.414 644.148 273.333 645.391 271.591 646.334C266.96 649.37 262.353 651.259 258.224 655.024C255.512 657.497 255.705 654.772 253.907 654.534C251 656.015 243.815 666.336 240.412 669.748C245.547 657.973 251.1 646.385 257.062 635.006C260.753 627.838 264.239 622.077 267.297 614.599C262.405 613.728 257.516 615.284 255.263 611.166C255.155 610.968 253.538 611.315 252.856 610.508C258.06 606.861 268.752 604.146 274.511 600.379C276.942 598.79 278.231 597.633 279.866 595.213C284.158 588.861 287.436 581.932 291.19 575.264C295.734 566.698 302.507 556.749 305.202 547.583C297.709 546.491 292.744 546.619 285.38 543.723C283.571 543.012 275.787 543.105 273.166 543.018C275.239 541.704 276.764 540.904 278.965 539.804C278.223 538.526 277.652 538.311 276.342 537.569C273.7 537.572 259.639 537.997 258.342 537.633L258.638 537.164C261.038 536.081 263.56 535.941 266.168 535.651C267.842 535.247 269.665 534.584 271.312 534.059C284.018 530.01 297.218 527.852 310.392 525.97C316.072 525.158 322.04 525.15 327.779 524.429C329.351 523.182 331.781 520.488 333.25 518.948ZM320.352 581.608C327.572 580.524 334.628 576.476 341.776 574.11C348.931 571.442 364.296 564.187 367.863 557.215C362.162 551.489 353.357 550.38 345.533 550.359C343.541 550.362 341.548 550.391 339.557 550.446C336.93 550.95 336.622 551.371 334.985 554.021C329.914 562.229 324.084 572.786 320.352 581.608Z" fill="#FF3B30"/>
<path d="M333.25 518.948C334.574 517.347 336.332 515.219 337.695 513.571C337.906 513.317 338.449 513.868 338.549 513.002L338.052 513.169L338.594 512.879C338.599 516.531 341.992 517.64 344.812 520.188C345.83 518.573 347.043 516.485 348.285 515.094C347.944 516.324 346.271 521.947 346.193 522.841C345.128 521.772 345.515 521.857 344.208 521.584L342.625 522.767C340.641 522.856 339.789 520.479 338.359 520.045C336.307 519.423 335.562 520.375 333.25 518.948Z" fill="#FF3B30"/>
<path d="M276.342 537.569C273.7 537.572 259.639 537.997 258.342 537.633L258.638 537.164C261.038 536.081 263.559 535.941 266.168 535.651L266.079 536.526C268.999 537.393 277.109 536.504 281.04 537.508L276.342 537.569Z" fill="#FF3B30"/>
<path d="M281.04 537.508C282.596 537.648 282.93 537.402 283.914 538.281C283.054 539.596 280.438 539.681 278.964 539.804C278.222 538.526 277.651 538.311 276.342 537.569L281.04 537.508Z" fill="#FF3B30"/>
<path d="M374.826 655.951C374.541 655.705 374.261 655.451 373.988 655.192C373.2 654.435 372.554 653.796 372.531 652.802C373.879 653.182 374.398 654.077 375.479 655.186L374.826 655.951Z" fill="#FF3B30"/>
<path d="M605.022 372.467C610.346 372.201 618.674 372.482 624.192 372.481L664.473 372.468C694.159 372.475 723.912 372.444 753.597 372.513C754.741 372.516 756.305 372.491 757.238 373.109C757.242 373.164 757.249 373.219 757.249 373.274C757.293 374.864 742.323 401.299 740.787 402.805C739.894 403.685 738.516 403.812 737.325 403.932C731.363 404.535 724.984 404.05 718.957 404.008C709.573 403.943 700.185 404.093 690.804 403.745C689.196 405.809 686.398 410.922 685.02 413.311L675.239 430.172C665.009 447.561 654.438 464.782 644.331 482.272C641.206 487.679 633.299 502.94 629.845 506.39C625.836 506.981 615.618 506.719 611.152 506.686C609.806 506.75 609.139 506.749 607.841 507.104L607.063 508.202L606.301 507.686L606.761 506.823L606.019 506.271L604.943 507.08C599.759 506.514 584.328 506.774 578.461 506.817C581.303 498.432 591.446 483.035 596.325 474.741L619.913 434.296C622.815 429.333 635.256 406.76 637.971 404.141C631.266 403.523 588.973 405.083 586.893 403.164C586.551 399.846 601.668 375.307 605.022 372.467Z" fill="#FEFEFE"/>
<path d="M606.02 506.271C608.064 505.387 609.207 501.647 610.402 501.866C610.573 503.474 607.992 505.293 608.294 506.475L611.152 506.687C609.807 506.75 609.14 506.75 607.842 507.105L607.064 508.203L606.301 507.687L606.762 506.824L606.02 506.271Z" fill="#FF3B30"/>
<path d="M665.876 519.8C666.431 519.656 666.57 519.772 667.098 519.99C668.42 522.677 670.179 526.029 670.338 529.023C671.267 546.828 659.592 569.773 658.444 587.479C667.876 587.055 676.534 585.99 686.141 585.673C684.101 586.951 678.007 590.116 676.876 591.458C677.523 592.253 677.852 592.543 677.971 593.586C669.655 608.862 654.439 601.437 650.656 611.483C643.248 631.154 640.854 654.857 631.823 673.798C631.78 672.691 631.688 671.446 631.438 670.369C630.089 664.559 629.529 658.867 628.993 652.927C628.628 654.052 625.325 661.7 624.598 663.294L624.11 663.132C623.765 662.008 623.03 659.461 622.574 658.555C621.53 656.493 619.374 654.05 618.91 651.748C616.679 640.679 620.291 625.267 620.105 614.842C611.602 615.27 594.663 619.164 586.434 621.136C577.565 623.167 571.543 633.33 564.707 639.936C561.269 643.262 552.29 653.363 546.998 655.167C546.812 655.231 546.423 654.687 546.216 654.453C545.914 652.759 546.113 652.253 546.542 650.561C544.438 651.305 542.235 652.168 540.047 652.542C537.761 651.458 539.547 649.902 538.44 648.103C537.828 648.136 532.247 651.619 531.23 652.173C533.839 643.637 541.949 634.833 546.625 626.024C545.394 625.297 544.073 624.387 542.866 623.597C541.258 619.431 540.817 617.652 537.685 614.43C541.639 610.99 546.304 608.602 551.329 607.152C555.259 606.019 561.857 605.931 564.969 603.216C570.301 598.558 574.77 591.873 579.443 586.486C594.182 569.498 628.251 528.998 648.222 521.416C653.855 519.277 659.985 521.524 665.876 519.8ZM608.037 595.647C610.887 595.495 624.043 591.882 626.98 590.612C628.338 586.574 631.645 574.079 631.621 570.162L631.256 569.727C625.381 574.377 612.007 588.684 607.687 594.833C607.795 595.194 607.799 595.386 608.037 595.647Z" fill="#FF3B30"/>
<path d="M606.02 506.271L606.762 506.823L606.302 507.686L607.064 508.202C604.472 513.637 598.065 522.801 594.127 527.417L595.044 527.81C595.71 527.24 598.811 525.46 599.744 524.903C595.953 533.43 589.498 539.391 583.805 546.557C579.355 552.158 574.691 557.502 570.074 562.959L529.313 611.601C523.604 618.527 517.682 626.345 512.318 632.691C502.787 643.973 495.197 661.919 477.602 658.386C474.127 657.688 465.024 654.882 463.532 651.191C459.593 641.442 465.108 626.037 465.751 615.552C468.759 598.262 473.855 581.59 478.043 564.549C481.219 551.624 482.266 538.364 494.378 530.108C495.665 529.23 496.504 528.474 498.025 528.733C500.341 531.097 499.64 535.819 500.714 537.485C502.434 536.796 504.375 535.614 506.011 536.599C506.717 538.46 506.61 540.559 506.844 542.532C508.504 556.617 504.375 570.223 501.985 583.954C500.852 590.465 499.511 596.843 498.545 603.379C505.856 596.275 512.549 587.004 519.575 579.38C539.579 557.636 560.443 536.435 582.948 517.269C586.747 514.032 592.912 510.162 597.207 507.062C594.273 510.754 590.919 516.364 587.914 519.358C586.401 521.192 585.488 522.439 584.178 524.422L585.087 525.057C586.072 524.398 586.854 523.823 587.791 523.095C588.176 522.926 588.553 522.736 588.918 522.524C591.391 521.12 604.4 509.047 604.944 507.08L606.02 506.271Z" fill="#FF3B30"/>
<path d="M585.086 525.057C583.836 526.285 578.001 532.137 576.869 532.459C577.33 531.238 582.744 525.193 584.177 524.422L585.086 525.057Z" fill="#FF3B30"/>
<path d="M588.627 534.563C590 532.139 591.846 529.056 594.125 527.417L595.042 527.811C592.994 529.771 590.604 532.46 588.627 534.563Z" fill="#FF3B30"/>
<path d="M779.758 628.836C747.413 638.979 714.543 647.762 681.984 657.255C680.201 657.775 675.965 658.585 674.084 658.433C668.328 657.97 656.768 652.862 657.181 645.888C657.701 637.495 665.676 633.7 669.396 627.142C684.695 600.172 700.042 573.325 717.211 547.472C722.292 539.814 726.647 530.96 732.999 524.26C735.452 521.671 741.998 522.049 745.273 522.252C761.62 535.23 751.438 544.578 743.145 558.565L723.856 591.629C718.854 600.099 707.878 616.995 705.476 625.381C710.542 625.059 716.707 622.899 721.967 622.031C736.107 619.696 749.211 616.805 763.518 615.337C770.06 614.013 784.208 614.291 790.98 615.44C789.73 615.73 785.645 616.586 784.653 616.96C784.216 617.415 783.247 618.295 783.077 618.806C781.985 620.354 781.64 620.627 779.758 621.087L779.472 621.7C780.25 622.324 782.104 622.317 783.18 622.405C789.849 622.522 796.51 622.869 803.155 623.443C796.681 625.126 790.139 625.635 783.751 627.716C782.485 628.128 781.056 628.468 779.758 628.836Z" fill="#FF3B30"/>
<path d="M763.518 615.337C770.06 614.014 784.208 614.291 790.98 615.44C789.73 615.73 785.645 616.587 784.652 616.96C784.216 617.415 783.247 618.295 783.076 618.806C780.417 618.29 776.784 617.969 774.029 617.648C768.825 617.267 770.385 614.961 763.518 615.337Z" fill="#FF3B30"/>
<path d="M774.029 617.648L774.18 617.172C776.24 616.737 782.266 616.94 784.652 616.96C784.216 617.415 783.247 618.295 783.076 618.806C780.417 618.289 776.784 617.969 774.029 617.648Z" fill="#FF3B30"/>
<path d="M783.18 622.405C789.849 622.523 796.51 622.869 803.156 623.444C796.681 625.126 790.139 625.636 783.752 627.716C782.485 628.129 781.056 628.469 779.758 628.837C781.171 626.31 789.893 626.356 791.048 623.688C789.686 623.175 776.701 622.945 774.486 622.833C777.297 622.455 780.33 622.463 783.18 622.405Z" fill="#FF3B30"/>
<path d="M774.487 622.832C772.824 622.904 770.231 623.117 768.711 622.602C771.994 621.953 776.448 621.282 779.759 621.087L779.473 621.7C780.251 622.324 782.105 622.317 783.181 622.405C780.33 622.462 777.297 622.455 774.487 622.832Z" fill="#FF3B30"/>
<path d="M587.913 519.357C588.914 521.033 589.049 520.961 587.604 522.596L587.79 523.095C586.853 523.822 586.071 524.398 585.087 525.057L584.178 524.421C585.488 522.438 586.401 521.192 587.913 519.357Z" fill="#FF3B30"/>
</svg>
