<svg width="1599" height="628" viewBox="0 0 1599 628" fill="none" xmlns="http://www.w3.org/2000/svg">
<path d="M368.544 14.4716C371.137 14.2973 373.195 13.9814 375.667 14.8488C379.059 20.4042 366.766 117.207 364.765 128.704C369.591 125.461 373.831 120.908 378.299 117.13C394.128 103.75 489.153 17.2429 498.641 15.3005C509.635 13.0497 525.001 14.7297 536.397 14.7403L614.791 14.6139C608.355 31.8925 597.316 52.907 589.616 70.3106C566.358 122.877 540.571 175.023 514.265 226.137C508.953 236.46 493.22 270.61 487.81 277.54C482.935 280.159 395.844 279.037 382.814 279.204C401.05 241.803 422.637 205.873 441.105 168.6C446.38 157.953 451.594 148.547 457.56 138.288C454.254 141.097 450.85 144.218 447.752 147.253C425.711 168.853 401.863 188.531 379.247 209.443C368.645 219.367 309.234 275.335 299.878 278.068C291.454 280.53 264.02 278.917 253.486 279.163C249.682 279.252 241.123 280.19 238.295 277.486C237.387 270.281 243.529 237.3 245.168 227.467C250.795 192.757 256.796 158.11 263.173 123.53C253.391 135.53 243.532 149.241 233.999 161.653C212.876 189.282 191.476 216.699 169.803 243.897C163.199 252.124 147.679 272.991 141.196 278.696C135.379 279.076 117.875 279.463 112.456 279.031C103.924 278.35 52.8789 280.251 49.6867 278.561C48.4951 273.286 78.7023 236.485 83.233 230.672C127.759 173.542 171.348 115.428 219.567 61.3157C232.221 47.1143 248.56 25.7553 263.548 14.9973C272.791 14.2067 289.842 14.6748 299.697 14.6804C322.646 14.7842 345.596 14.7147 368.544 14.4716Z" fill="black"/>
<path d="M716.492 15.1152C725.858 14.2379 740.871 14.6451 750.643 14.6445L810.283 14.6675L867.786 14.6851C880.887 14.6942 896.448 13.8586 909.003 16.1521C933.901 20.7008 949.602 44.6403 938.07 68.5764C933.222 78.6478 927.639 87.364 922.065 96.7137L897.198 139.046L863.734 196.409C856.793 208.444 846.019 228.297 837.735 238.643C821.261 259.228 785.955 275.607 760.014 278.664C725.937 280.318 680.45 278.891 645.32 278.883L602.623 279.009C593.185 279.049 580.916 279.43 571.754 278.107C563.131 276.948 554.93 273.667 547.888 268.556C536.013 260.043 530.023 243.417 535.563 229.397C539.539 219.332 546.689 208.56 552.254 199.055L581.906 148.715C593.405 128.813 605.039 108.989 616.808 89.2464C620.76 82.5814 631.443 63.7725 635.755 58.3762C653.299 36.4196 689.426 19.1286 716.492 15.1152ZM737.772 217.096C747.071 214.795 748.093 213.381 752.887 205.42L798.267 128.437C805.45 116.119 815.108 102.736 819.996 89.3886C820.706 87.428 820.691 85.1441 820.168 83.1367C819.816 81.8213 818.872 78.9774 817.607 78.3166C811.501 75.1291 746.355 75.7695 736.108 76.7834C726.91 79.1125 722.487 84.9223 718.01 92.8051C697.023 129.767 674.335 165.987 654.61 203.623C653.059 206.582 652.899 212.553 655.655 215.165C664.675 219.303 724.108 217.708 737.772 217.096Z" fill="black"/>
<path d="M1358.59 15.1267C1369.09 13.852 1384.96 14.6871 1395.77 14.6928L1458.71 14.6567L1512.95 14.6404C1535.42 14.6404 1554.03 11.854 1572.07 26.8074C1583.72 36.4601 1586.74 51.5658 1580.06 64.6864C1569.04 86.295 1555.93 106.686 1543.85 127.58L1503.25 197.346C1498.2 205.986 1480.26 237.272 1474.13 243.482C1455.91 261.908 1424.57 276.273 1399.32 278.586C1346.57 280.955 1291.83 277.529 1238.87 279.007C1221.1 279.503 1201.85 277.643 1187.32 266.179C1158.07 243.104 1185.89 210.729 1199.6 187.35L1235.44 125.853C1247.95 104.777 1261.96 77.4243 1276.16 58.4258C1292.08 37.1182 1332.42 18.2184 1358.59 15.1267ZM1377.46 217.37C1381.49 217.349 1385.1 215.618 1387.95 212.782C1398.46 202.3 1414.58 170.086 1422.92 155.766C1434.19 136.422 1449.54 112.601 1458.8 92.6859C1460.02 90.0505 1460.81 87.5463 1460.81 84.607C1460.82 82.2849 1460.31 80.1298 1458.61 78.4809C1455.51 75.4815 1390.1 76.2972 1381.39 76.6989C1380.2 76.7536 1379.01 76.8195 1377.81 76.8964C1371.66 77.9354 1366.93 80.5274 1363.58 85.9732C1340.65 123.249 1318.45 161.414 1297.49 199.826C1295.66 203.183 1294 209.632 1294.46 213.38C1298.13 219.119 1318.29 217.345 1324.71 217.507C1342.04 217.945 1360.2 216.504 1377.46 217.37Z" fill="black"/>
<path d="M448.92 303.07C451.524 299.917 454.982 295.73 457.663 292.485C458.078 291.984 459.145 293.069 459.343 291.363L458.365 291.694L459.432 291.122C459.441 298.311 466.113 300.495 471.66 305.511C473.662 302.331 476.048 298.221 478.491 295.482C477.82 297.904 474.531 308.973 474.376 310.735C506.393 321.717 603.776 322.801 587.494 385.554C582.127 406.24 537.269 432.309 519.4 441.588C500.447 450.464 479.4 459.928 460.195 468.744C468.966 486.336 537.078 556.934 532.166 570.8C532.109 570.961 532.038 571.116 531.975 571.275L530.692 572.781C531.919 574.965 533.2 578.005 535.383 578.937C539.893 576.318 548.255 554.295 550.876 548.422C572.434 501.252 594.837 454.474 618.075 408.111C630.458 383.696 651.027 337.414 673.597 319.83C680.444 314.496 695.48 323.234 708.049 318.432C708.24 323.253 708.174 331.376 710.432 335.366L713.218 335.814C718.042 341.064 709.816 359.655 707.106 365.677C696.117 390.103 682.944 413.475 670.694 437.279C659.659 458.718 647.793 479.769 635.913 500.754C625.179 519.716 616.054 539.901 602.585 557.129C600.538 559.748 597.966 562.634 595.313 564.649C587.016 568.95 569.465 577.326 560.758 578.259C557.719 575.769 560.326 575.105 558.039 573.17C553.623 576.293 544.538 586.737 541.159 591.208C544.849 596.417 548.819 601.685 551.622 607.405C545.076 600.058 541.448 598.566 534.239 592.628C523.791 584.022 515.522 574.515 502.922 568.581C504.115 572.796 505.282 577.018 506.425 581.246C502.544 578.534 498.652 575.705 494.139 573.653C485.698 569.817 476.849 568.951 469.433 562.82C445.941 543.395 426.675 498.838 396.393 492.168C386.589 490.129 381.609 501.42 378.039 507.094C370.232 519.502 364.791 530.851 350.46 535.426C349.137 535.848 340.755 546.255 338.391 547.648C335.169 549.545 331.077 551.993 327.65 553.848C318.542 559.825 309.481 563.545 301.361 570.956C296.026 575.826 296.405 570.459 292.87 569.992C287.152 572.907 273.022 593.225 266.328 599.943C276.426 576.762 287.349 553.949 299.076 531.548C306.335 517.436 313.191 506.096 319.206 491.374C309.584 489.658 299.968 492.723 295.536 484.615C295.324 484.226 292.143 484.908 290.803 483.321C301.037 476.14 322.067 470.795 333.394 463.38C338.175 460.25 340.711 457.973 343.926 453.209C352.368 440.704 358.814 427.065 366.197 413.937C375.134 397.074 388.456 377.486 393.756 359.443C379.019 357.293 369.254 357.544 354.771 351.844C351.213 350.443 335.903 350.627 330.749 350.456C334.824 347.869 337.826 346.293 342.153 344.128C340.693 341.613 339.571 341.189 336.995 339.728C331.799 339.734 304.144 340.571 301.593 339.854L302.175 338.931C306.895 336.8 311.854 336.523 316.985 335.953C320.276 335.156 323.863 333.851 327.103 332.818C352.092 324.847 378.054 320.6 403.964 316.894C415.134 315.295 426.873 315.279 438.16 313.86C441.252 311.406 446.032 306.101 448.92 303.07ZM423.554 426.425C437.754 424.291 451.632 416.323 465.69 411.664C479.762 406.412 509.981 392.129 516.996 378.404C505.785 367.132 488.467 364.948 473.079 364.908C469.161 364.913 465.242 364.97 461.325 365.078C456.159 366.07 455.553 366.9 452.334 372.116C442.359 388.276 430.894 409.059 423.554 426.425Z" fill="#FF3B30"/>
<path d="M448.92 303.07C451.524 299.917 454.982 295.73 457.663 292.485C458.077 291.984 459.145 293.069 459.342 291.363L458.365 291.694L459.431 291.122C459.441 298.311 466.113 300.495 471.66 305.511C473.662 302.331 476.048 298.221 478.491 295.482C477.82 297.904 474.53 308.973 474.376 310.735C472.282 308.63 473.043 308.797 470.473 308.259L467.358 310.589C463.457 310.763 461.781 306.083 458.968 305.229C454.933 304.005 453.467 305.879 448.92 303.07Z" fill="#FF3B30"/>
<path d="M336.994 339.728C331.798 339.734 304.143 340.571 301.592 339.854L302.174 338.931C306.894 336.8 311.853 336.523 316.984 335.953L316.809 337.675C322.551 339.381 338.503 337.632 346.233 339.609L336.994 339.728Z" fill="#FF3B30"/>
<path d="M346.234 339.608C349.294 339.885 349.952 339.401 351.887 341.132C350.196 343.72 345.05 343.886 342.152 344.128C340.693 341.613 339.57 341.189 336.994 339.728L346.234 339.608Z" fill="#FF3B30"/>
<path d="M530.691 572.781C530.13 572.296 529.58 571.797 529.042 571.287C527.493 569.796 526.223 568.538 526.178 566.581C528.829 567.329 529.849 569.092 531.975 571.275L530.691 572.781Z" fill="#FF3B30"/>
<path d="M983.44 14.6991C993.91 14.1767 1010.29 14.7301 1021.14 14.7267L1100.37 14.7017C1158.75 14.7151 1217.27 14.6549 1275.66 14.7906C1277.9 14.7958 1280.98 14.7476 1282.82 15.964C1282.82 16.0721 1282.84 16.1801 1282.84 16.2885C1282.92 19.4195 1253.48 71.4592 1250.46 74.4246C1248.7 76.157 1245.99 76.4078 1243.65 76.6445C1231.93 77.8306 1219.38 76.8766 1207.53 76.7937C1189.07 76.6643 1170.6 76.9597 1152.15 76.2746C1148.99 80.3378 1143.49 90.4045 1140.78 95.1075L1121.54 128.302C1101.42 162.535 1080.63 196.437 1060.75 230.868C1054.61 241.512 1039.05 271.556 1032.26 278.348C1024.38 279.511 1004.28 278.995 995.495 278.931C992.848 279.056 991.536 279.055 988.983 279.754L987.453 281.916L985.954 280.899L986.86 279.201L985.4 278.112L983.284 279.707C973.087 278.592 942.739 279.104 931.199 279.188C936.789 262.68 956.738 232.37 966.333 216.043L1012.73 136.42C1018.43 126.65 1042.9 82.2116 1048.24 77.0557C1035.06 75.8383 951.874 78.91 947.783 75.1309C947.111 68.6 976.842 20.2907 983.44 14.6991Z" fill="black"/>
<path d="M985.398 278.112C989.419 276.371 991.668 269.01 994.018 269.44C994.354 272.607 989.279 276.187 989.872 278.514L995.494 278.931C992.847 279.056 991.535 279.055 988.982 279.754L987.452 281.916L985.953 280.899L986.858 279.201L985.398 278.112Z" fill="#FF3B30"/>
<path d="M1103.12 304.748C1104.22 304.465 1104.49 304.693 1105.53 305.122C1108.13 310.412 1111.59 317.011 1111.9 322.906C1113.73 357.957 1090.76 403.127 1088.51 437.985C1107.06 437.149 1124.09 435.053 1142.98 434.43C1138.97 436.945 1126.98 443.177 1124.76 445.818C1126.03 447.383 1126.68 447.953 1126.91 450.007C1110.56 480.08 1080.63 465.464 1073.19 485.24C1058.62 523.966 1053.91 570.628 1036.15 607.918C1036.06 605.737 1035.88 603.286 1035.39 601.166C1032.74 589.729 1031.64 578.523 1030.58 566.83C1029.86 569.045 1023.37 584.1 1021.94 587.239L1020.98 586.92C1020.3 584.706 1018.86 579.693 1017.96 577.909C1015.9 573.85 1011.67 569.039 1010.75 564.509C1006.36 542.717 1013.47 512.376 1013.1 491.852C996.378 492.696 963.063 500.362 946.877 504.244C929.435 508.242 917.591 528.25 904.146 541.254C897.385 547.801 879.724 567.687 869.317 571.238C868.95 571.365 868.184 570.293 867.778 569.833C867.185 566.499 867.575 565.502 868.419 562.17C864.281 563.636 859.947 565.335 855.645 566.072C851.148 563.936 854.662 560.875 852.483 557.332C851.281 557.397 840.303 564.254 838.305 565.345C843.434 548.54 859.385 531.209 868.583 513.867C866.162 512.435 863.562 510.645 861.189 509.089C858.027 500.888 857.16 497.384 851 491.042C858.776 484.27 867.95 479.568 877.835 476.715C885.564 474.483 898.54 474.31 904.662 468.965C915.147 459.795 923.939 446.635 933.128 436.031C962.118 402.587 1029.12 322.856 1068.4 307.93C1079.48 303.719 1091.54 308.143 1103.12 304.748ZM989.367 454.065C994.972 453.765 1020.85 446.653 1026.62 444.152C1029.29 436.204 1035.8 411.606 1035.75 403.893L1035.03 403.037C1023.48 412.191 997.174 440.358 988.679 452.462C988.89 453.173 988.898 453.551 989.367 454.065Z" fill="#FF3B30"/>
<path d="M985.4 278.112L986.86 279.2L985.954 280.899L987.453 281.915C982.355 292.614 969.753 310.656 962.008 319.742L963.811 320.516C965.123 319.394 971.221 315.889 973.056 314.794C965.6 331.58 952.904 343.315 941.708 357.423C932.956 368.448 923.782 378.97 914.702 389.713L834.533 485.472C823.306 499.107 811.657 514.497 801.109 526.989C782.363 549.2 767.434 584.53 732.829 577.575C725.994 576.201 708.091 570.676 705.157 563.41C697.408 544.218 708.255 513.891 709.521 493.25C715.436 459.212 725.459 426.39 733.695 392.843C739.942 367.397 742.003 341.293 765.824 325.04C768.356 323.312 770.005 321.824 772.997 322.334C777.551 326.987 776.172 336.284 778.285 339.562C781.668 338.206 785.486 335.88 788.702 337.818C790.092 341.483 789.881 345.615 790.342 349.499C793.606 377.226 785.486 404.012 780.785 431.044C778.556 443.863 775.918 456.419 774.019 469.285C788.398 455.3 801.561 437.048 815.381 422.039C854.723 379.234 895.76 337.495 940.022 299.764C947.494 293.392 959.619 285.774 968.067 279.671C962.297 286.939 955.699 297.983 949.789 303.877C946.814 307.488 945.019 309.942 942.442 313.846L944.23 315.096C946.166 313.8 947.704 312.666 949.547 311.235C950.304 310.902 951.046 310.526 951.764 310.111C956.629 307.346 982.214 283.578 983.284 279.707L985.4 278.112Z" fill="#FF3B30"/>
<path d="M944.23 315.096C941.771 317.513 930.294 329.033 928.068 329.668C928.974 327.265 939.624 315.363 942.442 313.846L944.23 315.096Z" fill="#FF3B30"/>
<path d="M951.193 333.81C953.895 329.039 957.525 322.97 962.007 319.742L963.81 320.517C959.782 324.376 955.082 329.67 951.193 333.81Z" fill="#FF3B30"/>
<path d="M1327.11 519.402C1263.49 539.37 1198.84 556.66 1134.81 575.349C1131.3 576.372 1122.97 577.967 1119.27 577.668C1107.95 576.756 1085.21 566.699 1086.02 552.971C1087.05 536.448 1102.73 528.977 1110.05 516.067C1140.14 462.972 1170.32 410.119 1204.09 359.223C1214.08 344.148 1222.65 326.718 1235.14 313.527C1239.97 308.431 1252.84 309.176 1259.28 309.575C1291.43 335.124 1271.41 353.526 1255.1 381.062L1217.16 446.153C1207.32 462.828 1185.73 496.092 1181.01 512.599C1190.97 511.965 1203.1 507.713 1213.44 506.004C1241.25 501.408 1267.03 495.716 1295.17 492.826C1308.03 490.221 1335.86 490.768 1349.18 493.03C1346.72 493.6 1338.69 495.286 1336.73 496.021C1335.87 496.917 1333.97 498.65 1333.63 499.656C1331.49 502.703 1330.81 503.242 1327.11 504.146L1326.54 505.352C1328.07 506.582 1331.72 506.568 1333.84 506.74C1346.95 506.972 1360.05 507.654 1373.12 508.784C1360.39 512.097 1347.52 513.1 1334.96 517.196C1332.47 518.008 1329.66 518.677 1327.11 519.402Z" fill="#FF3B30"/>
<path d="M1295.17 492.826C1308.03 490.221 1335.86 490.768 1349.18 493.03C1346.72 493.6 1338.69 495.286 1336.73 496.021C1335.87 496.917 1333.97 498.65 1333.63 499.656C1328.4 498.639 1321.26 498.008 1315.84 497.376C1305.6 496.625 1308.67 492.085 1295.17 492.826Z" fill="#FF3B30"/>
<path d="M1315.84 497.376L1316.14 496.441C1320.19 495.584 1332.04 495.984 1336.73 496.022C1335.88 496.918 1333.97 498.65 1333.64 499.656C1328.4 498.639 1321.26 498.009 1315.84 497.376Z" fill="#FF3B30"/>
<path d="M1333.84 506.74C1346.95 506.972 1360.05 507.654 1373.12 508.784C1360.39 512.097 1347.52 513.1 1334.96 517.196C1332.47 518.008 1329.66 518.677 1327.11 519.402C1329.89 514.428 1347.04 514.518 1349.31 509.266C1346.63 508.256 1321.09 507.803 1316.74 507.581C1322.27 506.839 1328.23 506.853 1333.84 506.74Z" fill="#FF3B30"/>
<path d="M1316.74 507.582C1313.47 507.724 1308.37 508.143 1305.38 507.13C1311.84 505.851 1320.6 504.531 1327.11 504.146L1326.55 505.352C1328.08 506.582 1331.72 506.569 1333.84 506.741C1328.23 506.854 1322.27 506.839 1316.74 507.582Z" fill="#FF3B30"/>
<path d="M949.788 303.877C951.756 307.176 952.021 307.034 949.179 310.253L949.546 311.235C947.704 312.667 946.166 313.8 944.229 315.097L942.441 313.846C945.018 309.942 946.814 307.489 949.788 303.877Z" fill="#FF3B30"/>
</svg>
